#!OML:ASF I:\salsa\salsa 7_09\Patient 1\Session 1\dancerfemale.ASF
:FULLY-SPECIFIED
:DEGREES
2173
root 17.4314 15.9197 -4.42015 -331.092 644.889 337.432
lowerback 4.32221 -2.33636 6.14964
upperback -3.66464 -2.71996 -0.0535119
thorax -6.56337 -1.6371 -3.22341
lowerneck -1.6657 -0.0617671 -9.09444
upperneck -3.66177 0.252311 15.8997
head -0.800839 0.034453 6.33547
rclavicle 1.78906e-014 -3.97569e-015
rhumerus -47.5864 15.1911 -101.041
rradius 99.3698
rwrist -35.2544
rhand -7.36717 62.2364
rfingers 7.12502
rthumb 18.5177 393.098
lclavicle 1.78906e-014 -3.97569e-015
lhumerus -0.0873865 -65.7361 69.9923
lradius 111.592
lwrist -25.3574
lhand -25.9405 6.17584
lfingers 7.12502
lthumb 0.60319 396.155
rfemur -13.127 -13.0228 30.4696
rtibia 35.3443
rfoot -35.8458 -11.0941
rtoes 9.3867
lfemur -42.4539 24.7704 -33.6666
ltibia 57.1968
lfoot -20.1971 10.3122
ltoes -56.2473
2174
root 17.6013 15.8566 -4.4608 -326.452 644.955 333.032
lowerback 4.71562 -2.51251 6.46399
upperback -3.67299 -2.8767 0.456166
thorax -6.80708 -1.72207 -2.82901
lowerneck -1.06661 0.572665 -8.39932
upperneck -4.74947 1.17624 15.5496
head -1.33133 0.430876 6.10434
rclavicle -1.77664e-015 -1.66979e-014
rhumerus -48.9511 15.9282 -102.185
rradius 99.9042
rwrist -35.2999
rhand -9.01965 64.0231
rfingers 7.12502
rthumb 16.9275 394.741
lclavicle -1.77664e-015 -1.66979e-014
lhumerus 1.00721 -65.5983 68.5342
lradius 111.933
lwrist -24.6861
lhand -25.7433 6.98978
lfingers 7.12502
lthumb 0.793634 396.968
rfemur -14.0284 -13.9295 32.0419
rtibia 34.8885
rfoot -36.2618 -11.1247
rtoes 9.47449
lfemur -45.1598 23.4659 -31.7598
ltibia 60.5752
lfoot -19.4919 8.24688
ltoes -56.1847
2175
root 17.7607 15.7989 -4.48905 -322.946 644.867 329.597
lowerback 5.19824 -2.82152 6.60053
upperback -3.87441 -3.22572 0.681123
thorax -7.33439 -1.9126 -2.59642
lowerneck 0.348246 1.44775 -6.96774
upperneck -5.76563 2.39242 14.8857
head -1.99672 0.931235 5.62686
rclavicle 1.82758e-014 1.51076e-014
rhumerus -50.6533 16.8631 -104.413
rradius 99.9643
rwrist -35.6623
rhand -9.12387 65.6512
rfingers 7.12502
rthumb 16.8272 396.36
lclavicle 1.82758e-014 1.51076e-014
lhumerus 0.362011 -65.5028 67.933
lradius 112.453
lwrist -24.4242
lhand -25.8648 8.33829
lfingers 7.12502
lthumb 0.676291 398.317
rfemur -14.5875 -14.6545 33.018
rtibia 34.2989
rfoot -36.8561 -10.673
rtoes 7.44975
lfemur -47.0567 21.8676 -29.5434
ltibia 63.6941
lfoot -19.1516 5.07756
ltoes -55.5382
2176
root 17.9089 15.7323 -4.50944 -320.132 644.438 326.635
lowerback 5.51309 -2.51416 6.46556
upperback -3.49749 -2.78252 1.1606
thorax -7.03287 -1.65811 -2.07259
lowerneck 0.437319 1.70108 -7.3681
upperneck -6.80283 2.81817 14.6028
head -2.36383 1.12571 5.60208
rclavicle 1.02374e-014 -1.03368e-014
rhumerus -50.8502 17.4444 -104.972
rradius 99.7397
rwrist -36.4809
rhand -7.86152 66.7915
rfingers 7.12502
rthumb 18.0421 397.608
lclavicle 1.02374e-014 -1.03368e-014
lhumerus 3.49883 -65.7082 65.5979
lradius 112.719
lwrist -24.3315
lhand -25.8839 9.38381
lfingers 7.12502
lthumb 0.657868 399.363
rfemur -14.7449 -15.0395 33.4512
rtibia 33.6561
rfoot -37.4771 -10.1307
rtoes 3.44513
lfemur -48.1448 20.3226 -27.2508
ltibia 66.4446
lfoot -19.6446 1.73714
ltoes -56.4056
2177
root 18.0519 15.6876 -4.52258 -315.28 644.165 321.274
lowerback 6.13849 -2.1509 6.7432
upperback -3.14355 -2.19896 1.8323
thorax -6.94819 -1.35898 -1.58165
lowerneck 0.202236 1.85184 -7.165
upperneck -7.05388 3.00961 13.5359
head -2.40473 1.25274 5.22937
rclavicle -3.02898e-014 1.66979e-014
rhumerus -50.7412 18.0471 -105.518
rradius 99.0521
rwrist -37.23
rhand -6.38764 66.9518
rfingers 7.12502
rthumb 19.4597 397.906
lclavicle -3.02898e-014 1.66979e-014
lhumerus 6.05081 -65.6869 63.9086
lradius 112.888
lwrist -24.5077
lhand -25.5618 9.5258
lfingers 7.12502
lthumb 0.96896 399.503
rfemur -14.483 -15.1788 34.29
rtibia 33.0292
rfoot -37.6315 -9.31958
rtoes 3.50326
lfemur -48.375 19.1263 -24.0241
ltibia 68.8331
lfoot -20.8353 -1.76525
ltoes -56.2764
2178
root 18.1922 15.6064 -4.52322 -309.837 643.959 315.136
lowerback 6.85823 -1.85884 7.24127
upperback -2.77561 -1.68592 2.47899
thorax -6.92665 -1.10946 -1.23119
lowerneck 0.052635 2.22171 -7.17204
upperneck -7.17543 3.49173 12.7872
head -2.45739 1.51966 4.98432
rclavicle 1.71452e-015 6.75868e-015
rhumerus -50.2169 18.8218 -106.206
rradius 97.7843
rwrist -36.3556
rhand -5.95034 67.126
rfingers 7.12502
rthumb 19.8801 398.123
lclavicle 1.71452e-015 6.75868e-015
lhumerus 7.32661 -65.184 63.4384
lradius 112.812
lwrist -24.7155
lhand -24.9887 9.70939
lfingers 7.12502
lthumb 1.52248 399.684
rfemur -14.1486 -15.2648 35.1605
rtibia 32.6988
rfoot -37.5769 -8.40914
rtoes 7.88275
lfemur -48.2251 18.1456 -20.729
ltibia 71.2932
lfoot -22.0505 -3.00269
ltoes -55.9697
2179
root 18.3299 15.5138 -4.51224 -304.571 643.921 309.229
lowerback 7.48227 -1.62848 7.81993
upperback -2.47076 -1.2545 3.09432
thorax -6.92965 -0.909085 -0.951685
lowerneck -0.0555498 2.69755 -7.09601
upperneck -7.13372 4.09816 11.9601
head -2.47511 1.85116 4.6966
rclavicle -1.34801e-014 -4.35338e-014
rhumerus -49.3343 19.5064 -106.861
rradius 95.8382
rwrist -33.8612
rhand -6.31748 67.1461
rfingers 7.12502
rthumb 19.5271 398.107
lclavicle -1.34801e-014 -4.35338e-014
lhumerus 7.33228 -64.4292 64.3004
lradius 112.539
lwrist -24.9733
lhand -24.1569 10.0677
lfingers 7.12502
lthumb 2.32583 400.035
rfemur -13.9124 -15.3524 36.0338
rtibia 32.4403
rfoot -37.6416 -7.67003
rtoes 11.2089
lfemur -47.8646 17.1735 -17.5873
ltibia 73.7256
lfoot -22.9974 -1.84974
ltoes -55.9497
2180
root 18.4573 15.4223 -4.49587 -299.412 643.818 303.517
lowerback 7.87761 -1.27359 8.10557
upperback -2.1703 -0.711389 3.71104
thorax -6.79076 -0.639971 -0.532536
lowerneck -0.025266 3.13588 -6.88235
upperneck -7.14304 4.64103 10.9316
head -2.51203 2.1481 4.32446
rclavicle 2.19222e-014 1.98785e-016
rhumerus -47.9192 19.9514 -107.133
rradius 93.6044
rwrist -31.8062
rhand -5.8041 66.6303
rfingers 7.12502
rthumb 20.0207 397.642
lclavicle 2.19222e-014 1.98785e-016
lhumerus 6.5218 -63.5637 66.1061
lradius 112.116
lwrist -25.4755
lhand -23.4579 9.96174
lfingers 7.12502
lthumb 3.00093 399.92
rfemur -13.9193 -15.433 36.8175
rtibia 32.449
rfoot -37.8236 -7.29053
rtoes 12.7165
lfemur -47.2265 16.3517 -14.7229
ltibia 76.0957
lfoot -23.76 -1.40136
ltoes -55.8182
2181
root 18.575 15.3493 -4.47324 -294.163 643.639 297.773
lowerback 8.14843 -0.898172 8.23805
upperback -1.90415 -0.174855 4.22873
thorax -6.6225 -0.370401 -0.134989
lowerneck -0.0269741 3.5939 -6.60373
upperneck -6.99604 5.2071 10.0315
head -2.49334 2.45402 3.98276
rclavicle -2.16635e-014 3.05639e-014
rhumerus -45.9722 20.3932 -107.328
rradius 90.8176
rwrist -30.2744
rhand -4.98117 66.4335
rfingers 7.12502
rthumb 20.8115 397.53
lclavicle -2.16635e-014 3.05639e-014
lhumerus 4.57986 -62.5824 68.8038
lradius 111.686
lwrist -26.2036
lhand -23.4052 11.0422
lfingers 7.12502
lthumb 3.05181 401
rfemur -13.9021 -15.3524 37.3959
rtibia 32.4195
rfoot -37.9647 -6.84402
rtoes 14.2843
lfemur -46.1366 15.7356 -12.1403
ltibia 78.1519
lfoot -24.4306 -1.7004
ltoes -55.7753
2182
root 18.6773 15.3032 -4.44176 -288.909 643.359 292.033
lowerback 8.25537 -0.56606 8.27835
upperback -1.65912 0.269488 4.59317
thorax -6.39448 -0.143107 0.162426
lowerneck 0.0296355 4.12192 -6.33656
upperneck -6.7411 5.86985 9.3279
head -2.45828 2.80204 3.70102
rclavicle 3.74585e-015 -6.76862e-014
rhumerus -43.6882 21.0286 -107.814
rradius 87.8628
rwrist -29.5244
rhand -4.5982 66.2221
rfingers 7.12502
rthumb 21.1794 397.359
lclavicle 3.74585e-015 -6.76862e-014
lhumerus 1.62401 -61.372 72.2661
lradius 110.998
lwrist -26.7714
lhand -23.8783 12.7945
lfingers 7.12502
lthumb 2.59491 402.758
rfemur -13.6715 -15.0735 37.5892
rtibia 32.2427
rfoot -37.9 -6.1933
rtoes 15.7921
lfemur -44.4068 15.168 -9.92769
ltibia 79.5992
lfoot -24.7652 -2.37886
ltoes -55.7592
2183
root 18.7605 15.2868 -4.40141 -284.889 643.023 287.567
lowerback 8.08181 -0.297595 8.13362
upperback -1.40887 0.572716 4.89714
thorax -6.01337 0.0257895 0.515722
lowerneck 0.111512 4.66232 -6.07845
upperneck -6.2664 6.51467 8.29059
head -2.59391 3.16736 3.66768
rclavicle -1.41261e-014 -4.37326e-014
rhumerus -41.2218 21.7609 -108.332
rradius 84.864
rwrist -29.4971
rhand -3.97856 66.6277
rfingers 7.12502
rthumb 21.7745 397.833
lclavicle -1.41261e-014 -4.37326e-014
lhumerus -1.95498 -59.9175 76.4895
lradius 109.933
lwrist -27.3288
lhand -23.767 14.2281
lfingers 7.12502
lthumb 2.7024 404.191
rfemur -13.3002 -14.3158 37.4021
rtibia 32.045
rfoot -37.7867 -6.09344
rtoes 16.9522
lfemur -42.1765 14.3797 -8.27206
ltibia 80.3281
lfoot -24.7067 -3.1514
ltoes -55.6801
